<?xml version="1.0" encoding="UTF-8"?>
<svg xmlns="http://www.w3.org/2000/svg" version="1.1" xmlns:xlink="http://www.w3.org/1999/xlink" viewBox="0 0 2000 2000">
  <!-- Generator: Adobe Illustrator 29.8.1, SVG Export Plug-In . SVG Version: 2.1.1 Build 2)  -->
  <defs>
    <style>
      .st0 {
        fill: url(#linear-gradient2);
      }

      .st1 {
        fill: url(#linear-gradient4);
      }

      .st1, .st2, .st3, .st4 {
        mix-blend-mode: multiply;
      }

      .st2 {
        fill: url(#linear-gradient1);
      }

      .st5 {
        fill: url(#linear-gradient9);
      }

      .st6 {
        fill: url(#linear-gradient8);
      }

      .st7 {
        fill: url(#linear-gradient11);
      }

      .st8 {
        isolation: isolate;
      }

      .st3 {
        fill: url(#linear-gradient10);
      }

      .st9 {
        fill: url(#linear-gradient5);
      }

      .st4 {
        fill: url(#linear-gradient7);
      }

      .st10 {
        fill: url(#linear-gradient3);
      }

      .st11 {
        fill: url(#linear-gradient6);
      }

      .st12 {
        fill: url(#linear-gradient);
      }
    </style>
    <linearGradient id="linear-gradient" x1="373.45" y1="945.79" x2="551.3" y2="945.79" gradientUnits="userSpaceOnUse">
      <stop offset="0" stop-color="#3fa9f5"/>
      <stop offset="1" stop-color="#0538cb"/>
    </linearGradient>
    <linearGradient id="linear-gradient1" x1="434.68" y1="881.67" y2="881.67" xlink:href="#linear-gradient"/>
    <linearGradient id="linear-gradient2" x1="410.11" y1="899.73" x2="649.61" y2="899.73" xlink:href="#linear-gradient"/>
    <linearGradient id="linear-gradient3" x1="29.41" y1="1741.72" x2="207.25" y2="1741.72" gradientTransform="translate(2380.96 883.15) rotate(93.73)" xlink:href="#linear-gradient"/>
    <linearGradient id="linear-gradient4" x1="90.63" y1="1677.6" x2="207.25" y2="1677.6" gradientTransform="translate(2380.96 883.15) rotate(93.73)" xlink:href="#linear-gradient"/>
    <linearGradient id="linear-gradient5" x1="66.06" y1="1695.66" x2="305.57" y2="1695.66" gradientTransform="translate(2380.96 883.15) rotate(93.73)" xlink:href="#linear-gradient"/>
    <linearGradient id="linear-gradient6" x1="811.59" y1="2062.46" x2="989.44" y2="2062.46" gradientTransform="translate(1581.51 3121.01) rotate(-179.8)" xlink:href="#linear-gradient"/>
    <linearGradient id="linear-gradient7" x1="872.81" y1="1998.34" x2="989.44" y2="1998.34" gradientTransform="translate(1581.51 3121.01) rotate(-179.8)" xlink:href="#linear-gradient"/>
    <linearGradient id="linear-gradient8" x1="848.24" y1="2016.39" x2="1087.75" y2="2016.39" gradientTransform="translate(1581.51 3121.01) rotate(-179.8)" xlink:href="#linear-gradient"/>
    <linearGradient id="linear-gradient9" x1="1349.76" y1="1372.98" x2="1527.61" y2="1372.98" gradientTransform="translate(-858.02 2548) rotate(-89.8)" xlink:href="#linear-gradient"/>
    <linearGradient id="linear-gradient10" x1="1410.99" y1="1308.86" x2="1527.61" y2="1308.86" gradientTransform="translate(-858.02 2548) rotate(-89.8)" xlink:href="#linear-gradient"/>
    <linearGradient id="linear-gradient11" x1="1386.42" y1="1326.92" x2="1625.92" y2="1326.92" gradientTransform="translate(-858.02 2548) rotate(-89.8)" xlink:href="#linear-gradient"/>
  </defs>
  <g class="st8">
    <g id="Layer_1">
      <g>
        <g>
          <path d="M940.16,1064.68c33.04,0,52.77-19.63,59.09-59.48h71.14c-9.91,74.25-58.99,119.54-130.33,119.54-79.79,0-136.94-56.95-136.94-144.81s57.15-144.81,136.94-144.81c71.34,0,120.42,45.29,130.33,119.54h-71.14c-6.32-39.85-26.05-59.48-59.09-59.48-41.69,0-64.73,29.06-64.73,84.75s23.03,84.75,64.73,84.75Z"/>
          <path d="M1158.8,1118.92h-67.64v-287.68h67.64v287.68Z"/>
          <path d="M1391.11,1045.54c-11.96,49.18-52.09,79.21-105.06,79.21-65.41,0-109.73-45.68-109.73-113.13s43.83-112.84,108.56-112.84,107.2,44.9,107.2,112.64c0,5.25-.29,10.79-.87,16.13h-150.64c3.31,28.48,20.51,45.1,47.43,45.1,19.83,0,33.24-9.04,40.82-27.12h62.3ZM1328.51,990.62c-4.57-27.21-19.15-40.92-43.15-40.92s-40.14,14.48-44.22,40.92h87.37Z"/>
          <path d="M1515.94,898.78c64.73,0,110.6,44.22,110.6,112.94s-45.87,113.03-110.6,113.03-110.6-44.32-110.6-113.03,45.97-112.94,110.6-112.94ZM1516.04,1066.53c27.11,0,42.28-19.24,42.28-54.81s-15.16-54.72-42.28-54.72-42.47,19.15-42.47,54.72,15.36,54.81,42.47,54.81Z"/>
        </g>
        <g>
          <g>
            <path class="st12" d="M551.3,894.68s-14.23-1.47-32.91,2.04c-20.35,3.82-45.96,13.56-64.27,37.56-35.15,46.06-40.17,90.68-40.17,90.68,0,0-30.13-22.76-38.4-36.62-5.62-10.34,1.47-21.29,4.42-30.73,2.11-6.8,24.47-50.24,54.7-74.58,11.75-9.44,24.67-16,38.06-16.4l78.56,28.05Z"/>
            <path class="st2" d="M551.3,894.68s-14.23-1.47-32.91,2.04c-11.25-5.49-23.26-10.14-35.92-13.56-19.41-3.18-33.47-3.62-47.8-.13,11.75-9.44,24.67-16,38.06-16.4l78.56,28.05Z"/>
            <path class="st0" d="M410.11,889.67s25.99-41.35,44.3-56.41c10.93-8.27,43.42-11.22,70.3,0,26.88,11.22,68.82,28.35,122.57,90.08,10.04,11.22-15.06,43.71-23.63,50.21,0,0-54.35-74.14-135.57-95.99-32.19-5.32-49.62-2.95-77.98,12.11Z"/>
          </g>
          <g>
            <path class="st10" d="M680.45,979.97s2.4-14.1.1-32.97c-2.48-20.56-10.54-46.74-33.3-66.58-43.68-38.07-87.88-45.98-87.88-45.98,0,0,24.67-28.58,39.04-35.93,10.69-4.94,21.15,2.85,30.38,6.41,6.64,2.55,48.55,27.69,70.86,59.43,8.66,12.34,14.36,25.66,13.89,39.05l-33.1,76.57Z"/>
            <path class="st1" d="M680.45,979.97s2.4-14.1.1-32.97c6.21-10.87,11.63-22.56,15.87-34.96,4.44-19.17,5.79-33.17,3.24-47.69,8.66,12.34,14.36,25.66,13.89,39.05l-33.1,76.57Z"/>
            <path class="st9" d="M694.63,839.4s39.57,28.63,53.41,47.88c7.54,11.44,8.38,44.06-4.57,70.15-12.95,26.09-32.77,66.83-97.87,116.45-11.85,9.29-42.64-17.88-48.57-26.85,0,0,77.51-49.41,104.61-129.04,7.4-31.78,6.18-49.32-7.01-78.6Z"/>
          </g>
          <g>
            <path class="st11" d="M599.01,1106.28s14.22,1.52,32.91-1.93c20.37-3.75,46.01-13.4,64.4-37.34,35.31-45.94,40.48-90.54,40.48-90.54,0,0,30.05,22.87,38.27,36.75,5.59,10.36-1.55,21.28-4.52,30.71-2.13,6.79-24.64,50.16-54.95,74.39-11.78,9.4-24.73,15.92-38.12,16.27l-78.47-28.32Z"/>
            <path class="st4" d="M599.01,1106.28s14.22,1.52,32.91-1.93c11.23,5.53,23.23,10.22,35.87,13.68,19.4,3.25,33.46,3.73,47.8.3-11.78,9.4-24.73,15.92-38.12,16.27l-78.47-28.32Z"/>
            <path class="st6" d="M740.18,1111.77s-26.13,41.26-44.5,56.26c-10.96,8.23-43.46,11.07-70.3-.24-26.84-11.32-68.72-28.59-122.26-90.51-10-11.26,15.21-43.66,23.8-50.13,0,0,54.09,74.32,135.24,96.46,32.18,5.43,49.61,3.12,78.02-11.84Z"/>
          </g>
          <g>
            <path class="st5" d="M469.09,1024.95s-1.52,14.22,1.93,32.91c3.75,20.37,13.4,46.01,37.34,64.4,45.94,35.31,90.54,40.48,90.54,40.48,0,0-22.87,30.05-36.75,38.27-10.36,5.59-21.28-1.55-30.71-4.52-6.79-2.13-50.16-24.64-74.39-54.95-9.4-11.78-15.92-24.73-16.27-38.12l28.32-78.47Z"/>
            <path class="st3" d="M469.09,1024.95s-1.52,14.22,1.93,32.91c-5.53,11.23-10.22,23.23-13.68,35.87-3.25,19.4-3.73,33.46-.3,47.8-9.4-11.78-15.92-24.73-16.27-38.12l28.32-78.47Z"/>
            <path class="st7" d="M463.6,1166.12s-41.26-26.13-56.26-44.5c-8.23-10.96-11.07-43.46.24-70.3,11.32-26.84,28.59-68.72,90.51-122.26,11.26-10,43.66,15.21,50.13,23.8,0,0-74.32,54.09-96.46,135.24-5.43,32.18-3.12,49.61,11.84,78.02Z"/>
          </g>
        </g>
      </g>
    </g>
  </g>
</svg>